<?xml version="1.0" encoding="UTF-8"?>
<svg id="Layer_2" data-name="Layer 2" xmlns="http://www.w3.org/2000/svg" viewBox="0 0 193.07 79.39">
  <defs>
    <style>
      .cls-1 {
        fill: #223971;
      }
    </style>
  </defs>
  <g id="Layer_1-2" data-name="Layer 1">
    <path class="cls-1" d="M193.07,79.39H0V0h193.07v79.39ZM3,76.39h187.07V3H3v73.39Z"/>
    <path class="cls-1" d="M65.25,20.44c-1.71-2.3-3.88-4.16-6.52-5.58-2.63-1.42-5.76-2.12-9.38-2.12h-24.69v.99h3.21c.86,0,1.59.31,2.2.94.61.62.91,1.38.91,2.27v18.47h-2.67v.89h2.67v17.64c-.36.07-.66.13-.89.2-.23.07-.36.1-.39.1-1.19.33-2.16.87-2.94,1.63-.77.76-1.33,1.62-1.68,2.59s-.45,1.99-.32,3.06c.13,1.07.53,2.1,1.18,3.11.66,1,1.6,1.91,2.84,2.71,1.23.8,2.79,1.42,4.67,1.85,1.09.26,2.19.47,3.31.62,1.12.15,2.3.22,3.55.22s2.99-.03,4.43-.24c4.8-.69,6.91-2.21,8.23-2.99l-6.55-1.43c-.09,1.35-1.33,3.11-2.74,3.41-1.29.27-1.67.2-2.82.27-1.61.03-2.95-.25-4-.83-1.05-.59-1.84-1.32-2.37-2.21-.53-.88-.8-1.84-.81-2.87-.02-1.03.23-1.97.74-2.8.51-.84,1.27-1.51,2.3-2.02,1.02-.51,2.27-.68,3.75-.52,1.71.17,3.14.48,4.29.94,1.15.46,2.19.94,3.11,1.43.92.49,1.8.94,2.64,1.33.84.39,1.8.59,2.89.59,2.7,0,5.11-.71,7.23-2.12,2.12-1.41,3.91-3.27,5.36-5.58,1.45-2.3,2.54-4.94,3.28-7.9.74-2.96,1.1-5.98,1.09-9.06-.02-3.08-.44-6.1-1.28-9.06-.84-2.96-2.12-5.59-3.83-7.9ZM61.1,46.11c-.23,2.84-.68,5.38-1.36,7.59-.67,2.22-1.54,4-2.59,5.35-1.05,1.35-2.29,2.02-3.7,2.02-.79,0-1.61-.21-2.47-.64-.86-.43-1.8-.95-2.84-1.55s-2.18-1.27-3.43-2c-1.25-.72-2.65-1.38-4.2-1.97v-18.62h4v-.89h-4V13.73h4.1c2.6,0,4.88.68,6.84,2.05,1.96,1.36,3.61,3.16,4.96,5.38,1.35,2.22,2.4,4.74,3.16,7.57.76,2.83,1.26,5.72,1.51,8.68s.25,5.86.02,8.71Z"/>
    <path class="cls-1" d="M83.26,13.38h-.09c-.46,0-2.76-.13-3.16-.1-.02,0-3.53.58-4.36-5.32l-6.4-1.11c-.17,0-.3.17-.3.39v.04c0,.09.49.81,1.07,1.62,1.07,1.48,2.51,2.64,4.18,3.36l4.8,2.08c-2.37.77-3.85,3.19-2.89,5.81l2.43-.66s-3.69-3.12,1.52-4.61c.27-.08.38-.17,1.13-.35.07-.02.42-.1.79-.16,1.57-.22,3.86,0,3.86,0,.79.02,1.58.19,2.28.56.85.46,1.51,1.14,1.98,2.03l3.46,6.83c1.05,2.29,1.81,4.65,2.27,7.06.46,2.41.69,4.75.69,7.01v.89c-.03.1-.05.28-.05.54v.54c-2.01-.76-3.88-1.13-5.63-1.13-2.6,0-5.06.64-7.38,1.93-2.32,1.29-4.42,3.12-6.29,5.49-.66.82-1.26,1.81-1.8,2.97s-1,2.34-1.36,3.56c-.36,1.22-.56,2.17-.59,2.84-.03.68-.05,1.08-.05,1.21,0,.76.1,1.49.3,2.2.2.71.53,1.34.99,1.9.46.56,1.07,1.01,1.83,1.36.76.35,1.71.52,2.86.52,1.91,0,3.65-.3,5.23-.91,1.58-.61,3-1.43,4.27-2.47,1.27-1.04,2.39-2.25,3.38-3.63.99-1.38,1.83-2.86,2.52-4.44.69-1.58,1.24-3.22,1.65-4.91.41-1.69.7-3.36.86-5.01,2.17,1.08,4.1,2.51,5.78,4.29s3.14,3.69,4.39,5.76l3.55,7.04c.16.33.25.66.25.99,0,.03,0,.16-.02.39-.02.23-.12.51-.32.84-.2.33-.46.59-.79.79s-.71.29-1.14.29h-2.17v.99h22.07v-.99h-3.26c-.72,0-1.38-.19-1.97-.57s-1.05-.89-1.38-1.55c-.66-1.31-1.56-3.11-2.72-5.39-1.15-2.28-2.41-4.79-3.78-7.51-1.37-2.73-2.8-5.57-4.3-8.55-1.5-2.97-2.95-5.83-4.34-8.57-1.4-2.74-2.67-5.25-3.83-7.51-1.15-2.27-2.07-4.07-2.77-5.42-.13-.23-.2-.46-.2-.69,0-.3.13-.63.4-1.01.26-.38.67-.57,1.23-.57h67.93c.86,0,1.6.31,2.25.94.64.62.96,1.36.96,2.22v31.12c-.07,1.64-.3,3.18-.69,4.61-.39,1.43-.91,2.67-1.55,3.72-.64,1.05-1.37,1.87-2.17,2.46-.81.59-1.65.89-2.54.89-.76,0-1.51-.24-2.27-.72s-1.48-1.24-2.17-2.3c-1.25-1.84-2.15-3.8-2.69-5.88-.54-2.07-.92-4.26-1.14-6.57-.21-2.3-.37-4.74-.47-7.31s-.33-5.27-.69-8.1c-.26-1.94-.86-3.74-1.78-5.41-.92-1.66-2.07-3.09-3.46-4.29-1.38-1.2-2.95-2.15-4.71-2.84-1.36-.53-8.87-.93-13.08-.68-.03,0-.06-.02-.09-.02h-.44v.83c.07,0,.15,0,.22-.01h.23s.04,0,.06-.01c1.59-.03,3.33.38,3.71.76.62.61.94,1.34.94,2.19v38.46c0,.83-.29,1.64-.86,2.24-.64.68-1.41,1.02-2.3,1.02h-3.16v.99h13.58v-.99h-3.11c-.93,0-1.71-.34-2.35-1.02-.57-.61-.86-1.43-.86-2.26V16.89c1.91.4,3.41,1.29,4.52,2.69,1.1,1.4,1.95,3.12,2.54,5.16.59,2.04,1,4.32,1.21,6.84.21,2.52.4,5.09.57,7.7.16,2.62.38,5.2.64,7.75.26,2.55.72,4.88,1.38,6.99.46,1.51,1.09,2.81,1.88,3.9.79,1.09,1.69,1.98,2.69,2.69,1,.71,2.07,1.23,3.21,1.58,1.14.35,2.3.52,3.48.52,1.61-.03,3.17-.29,4.67-.79,1.5-.49,2.82-1.28,3.97-2.37s2.09-2.52,2.81-4.32c.72-1.79,1.12-4,1.18-6.63v-31.07c0-.85.31-1.59.94-2.22.62-.62,1.37-.94,2.22-.94h3.21v-.99h-97.11ZM95.99,43.99c-.2,1.15-.48,2.33-.84,3.53-.36,1.2-.81,2.38-1.33,3.53-.53,1.15-1.15,2.18-1.88,3.09-.72.91-1.55,1.63-2.47,2.17s-1.94.82-3.06.82c-1.28,0-2.44-.4-3.46-1.19-1.18-.92-1.84-1.86-1.97-2.81-.2-.92-.3-1.7-.3-2.32,0-.82.15-1.81.44-2.96.13-.56.35-1.15.67-1.78.31-.62.67-1.23,1.06-1.83.39-.59.84-1.15,1.33-1.68s1.02-.97,1.58-1.33c.72-.46,1.51-.83,2.34-1.11.84-.28,1.77-.42,2.79-.42.96,0,1.89.11,2.81.32.92.21,1.81.5,2.67.86-.07.92-.2,1.96-.4,3.11ZM104.88,46.21c-2.44-2.8-4.94-4.77-7.5-5.92.03-.46.06-.9.07-1.33.02-.43.02-.86.02-1.28,0-.89-.05-1.98-.15-3.28-.1-1.3-.36-2.84-.79-4.62l8.34,16.44Z"/>
  </g>
</svg>